<mxfile host="app.diagrams.net" agent="Mozilla/5.0 (Macintosh; Intel Mac OS X 10_15_7) AppleWebKit/537.36 (KHTML, like Gecko) Chrome/128.0.0.0 Safari/537.36" version="24.7.8">
  <diagram name="Page-1" id="f-HWBqEjurAk2IqYQS52">
    <mxGraphModel dx="1203" dy="676" grid="1" gridSize="10" guides="1" tooltips="1" connect="1" arrows="1" fold="1" page="1" pageScale="1" pageWidth="850" pageHeight="1100" math="0" shadow="0">
      <root>
        <mxCell id="0" />
        <mxCell id="1" parent="0" />
        <mxCell id="pCh7YzgKV_ZC_FBBhEco-5" value="User" style="shape=umlLifeline;perimeter=lifelinePerimeter;whiteSpace=wrap;html=1;container=1;collapsible=0;recursiveResize=0;outlineConnect=0;" vertex="1" parent="1">
          <mxGeometry x="120" y="80" width="100" height="600" as="geometry" />
        </mxCell>
        <mxCell id="pCh7YzgKV_ZC_FBBhEco-6" value="Next.js Server" style="shape=umlLifeline;perimeter=lifelinePerimeter;whiteSpace=wrap;html=1;container=1;collapsible=0;recursiveResize=0;outlineConnect=0;" vertex="1" parent="1">
          <mxGeometry x="320" y="80" width="100" height="600" as="geometry" />
        </mxCell>
        <mxCell id="pCh7YzgKV_ZC_FBBhEco-7" value="GitHub" style="shape=umlLifeline;perimeter=lifelinePerimeter;whiteSpace=wrap;html=1;container=1;collapsible=0;recursiveResize=0;outlineConnect=0;" vertex="1" parent="1">
          <mxGeometry x="520" y="80" width="100" height="600" as="geometry" />
        </mxCell>
        <mxCell id="pCh7YzgKV_ZC_FBBhEco-8" value="1. Click &quot;Login with GitHub&quot;" style="html=1;verticalAlign=bottom;endArrow=block;" edge="1" parent="1" source="pCh7YzgKV_ZC_FBBhEco-5" target="pCh7YzgKV_ZC_FBBhEco-6">
          <mxGeometry width="80" relative="1" as="geometry">
            <mxPoint x="170" y="160" as="sourcePoint" />
            <mxPoint x="250" y="160" as="targetPoint" />
            <Array as="points">
              <mxPoint x="250" y="160" />
            </Array>
          </mxGeometry>
        </mxCell>
        <mxCell id="pCh7YzgKV_ZC_FBBhEco-9" value="2. Redirect to GitHub&#xa;(client_id, redirect_uri)" style="html=1;verticalAlign=bottom;endArrow=block;" edge="1" parent="1" source="pCh7YzgKV_ZC_FBBhEco-6" target="pCh7YzgKV_ZC_FBBhEco-7">
          <mxGeometry width="80" relative="1" as="geometry">
            <mxPoint x="370" y="200" as="sourcePoint" />
            <mxPoint x="450" y="200" as="targetPoint" />
            <Array as="points">
              <mxPoint x="450" y="200" />
            </Array>
          </mxGeometry>
        </mxCell>
        <mxCell id="pCh7YzgKV_ZC_FBBhEco-10" value="3. Show authorization page" style="html=1;verticalAlign=bottom;endArrow=block;" edge="1" parent="1" source="pCh7YzgKV_ZC_FBBhEco-7" target="pCh7YzgKV_ZC_FBBhEco-5">
          <mxGeometry width="80" relative="1" as="geometry">
            <mxPoint x="570" y="240" as="sourcePoint" />
            <mxPoint x="170" y="240" as="targetPoint" />
            <Array as="points">
              <mxPoint x="370" y="240" />
            </Array>
          </mxGeometry>
        </mxCell>
        <mxCell id="pCh7YzgKV_ZC_FBBhEco-11" value="4. Approve authorization" style="html=1;verticalAlign=bottom;endArrow=block;" edge="1" parent="1" source="pCh7YzgKV_ZC_FBBhEco-5" target="pCh7YzgKV_ZC_FBBhEco-7">
          <mxGeometry width="80" relative="1" as="geometry">
            <mxPoint x="170" y="280" as="sourcePoint" />
            <mxPoint x="570" y="280" as="targetPoint" />
            <Array as="points">
              <mxPoint x="370" y="280" />
            </Array>
          </mxGeometry>
        </mxCell>
        <mxCell id="pCh7YzgKV_ZC_FBBhEco-12" value="5. Redirect with temporary code" style="html=1;verticalAlign=bottom;endArrow=block;" edge="1" parent="1" source="pCh7YzgKV_ZC_FBBhEco-7" target="pCh7YzgKV_ZC_FBBhEco-6">
          <mxGeometry width="80" relative="1" as="geometry">
            <mxPoint x="570" y="320" as="sourcePoint" />
            <mxPoint x="370" y="320" as="targetPoint" />
            <Array as="points">
              <mxPoint x="470" y="320" />
            </Array>
          </mxGeometry>
        </mxCell>
        <mxCell id="pCh7YzgKV_ZC_FBBhEco-13" value="6. Exchange code for access token" style="html=1;verticalAlign=bottom;endArrow=block;" edge="1" parent="1" source="pCh7YzgKV_ZC_FBBhEco-6" target="pCh7YzgKV_ZC_FBBhEco-7">
          <mxGeometry width="80" relative="1" as="geometry">
            <mxPoint x="370" y="360" as="sourcePoint" />
            <mxPoint x="570" y="360" as="targetPoint" />
            <Array as="points">
              <mxPoint x="470" y="360" />
            </Array>
          </mxGeometry>
        </mxCell>
        <mxCell id="pCh7YzgKV_ZC_FBBhEco-14" value="7. Return access token" style="html=1;verticalAlign=bottom;endArrow=block;" edge="1" parent="1" source="pCh7YzgKV_ZC_FBBhEco-7" target="pCh7YzgKV_ZC_FBBhEco-6">
          <mxGeometry width="80" relative="1" as="geometry">
            <mxPoint x="570" y="400" as="sourcePoint" />
            <mxPoint x="370" y="400" as="targetPoint" />
            <Array as="points">
              <mxPoint x="470" y="400" />
            </Array>
          </mxGeometry>
        </mxCell>
        <mxCell id="pCh7YzgKV_ZC_FBBhEco-15" value="8. Use access token to request user data" style="html=1;verticalAlign=bottom;endArrow=block;" edge="1" parent="1" source="pCh7YzgKV_ZC_FBBhEco-6" target="pCh7YzgKV_ZC_FBBhEco-7">
          <mxGeometry width="80" relative="1" as="geometry">
            <mxPoint x="370" y="440" as="sourcePoint" />
            <mxPoint x="570" y="440" as="targetPoint" />
            <Array as="points">
              <mxPoint x="470" y="440" />
            </Array>
          </mxGeometry>
        </mxCell>
        <mxCell id="pCh7YzgKV_ZC_FBBhEco-16" value="9. Return user data" style="html=1;verticalAlign=bottom;endArrow=block;" edge="1" parent="1" source="pCh7YzgKV_ZC_FBBhEco-7" target="pCh7YzgKV_ZC_FBBhEco-6">
          <mxGeometry width="80" relative="1" as="geometry">
            <mxPoint x="570" y="480" as="sourcePoint" />
            <mxPoint x="370" y="480" as="targetPoint" />
            <Array as="points">
              <mxPoint x="470" y="480" />
            </Array>
          </mxGeometry>
        </mxCell>
        <mxCell id="pCh7YzgKV_ZC_FBBhEco-17" value="10. Set session/cookie, redirect to app" style="html=1;verticalAlign=bottom;endArrow=block;" edge="1" parent="1" source="pCh7YzgKV_ZC_FBBhEco-6" target="pCh7YzgKV_ZC_FBBhEco-5">
          <mxGeometry width="80" relative="1" as="geometry">
            <mxPoint x="370" y="520" as="sourcePoint" />
            <mxPoint x="170" y="520" as="targetPoint" />
            <Array as="points">
              <mxPoint x="270" y="520" />
            </Array>
          </mxGeometry>
        </mxCell>
      </root>
    </mxGraphModel>
  </diagram>
</mxfile>
